# xmcd
#
# Track frame offsets:
#	169
#	13103
#	32457
#	47025
#	65809
#	87033
#	104996
#	116692
#	130685
#	153149
#	179745
#	201513
#	223664
#	228106
#	253136
#
# Disc length: 3638 seconds
#
# Revision: 1
# Processed by: cddbd v1.5.2PL0 Copyright (c) Steve Scherf et al.
# Submitted via: audiograbber 1.83.01
#
DISCID=d80e340f
DTITLE=Point of Grace - Tennessee Christmas
DYEAR=2008
DGENRE=
TTITLE0=It's the most wonderful time of the year
TTITLE1=Jingle Bells
TTITLE2=Winter Wonderland
TTITLE3=Let it Snow, Let it Snow. Let it Snow/Sleigh Ride
TTITLE4=Let there be light
TTITLE5=Little Town
TTITLE6=Santa Claus is Coming to town
TTITLE7=Jingle Bell Rock
TTITLE8=Emmanuel God is with us/ Oh Come Oh Come Emmanuel
TTITLE9=Angels we have heard on high
TTITLE10=For unto us
TTITLE11=Oh Holy Night
TTITLE12=Joy to the World
TTITLE13=Breath of Heaven (Mary's Song)
TTITLE14=Tennessee Christmas
EXTD=
EXTT0=
EXTT1=
EXTT2=
EXTT3=
EXTT4=
EXTT5=
EXTT6=
EXTT7=
EXTT8=
EXTT9=
EXTT10=
EXTT11=
EXTT12=
EXTT13=
EXTT14=
PLAYORDER=
